<svg width="90" height="90" viewBox="0 0 90 90" fill="none" xmlns="http://www.w3.org/2000/svg">
<path d="M26.25 45C26.25 46.9891 25.4598 48.8968 24.0533 50.3033C22.6468 51.7098 20.7391 52.5 18.75 52.5C16.7609 52.5 14.8532 51.7098 13.4467 50.3033C12.0402 48.8968 11.25 46.9891 11.25 45C11.25 43.0109 12.0402 41.1032 13.4467 39.6967C14.8532 38.2902 16.7609 37.5 18.75 37.5C20.7391 37.5 22.6468 38.2902 24.0533 39.6967C25.4598 41.1032 26.25 43.0109 26.25 45ZM52.5 45C52.5 46.9891 51.7098 48.8968 50.3033 50.3033C48.8968 51.7098 46.9891 52.5 45 52.5C43.0109 52.5 41.1032 51.7098 39.6967 50.3033C38.2902 48.8968 37.5 46.9891 37.5 45C37.5 43.0109 38.2902 41.1032 39.6967 39.6967C41.1032 38.2902 43.0109 37.5 45 37.5C46.9891 37.5 48.8968 38.2902 50.3033 39.6967C51.7098 41.1032 52.5 43.0109 52.5 45ZM78.75 45C78.75 46.9891 77.9598 48.8968 76.5533 50.3033C75.1468 51.7098 73.2391 52.5 71.25 52.5C69.2609 52.5 67.3532 51.7098 65.9467 50.3033C64.5402 48.8968 63.75 46.9891 63.75 45C63.75 43.0109 64.5402 41.1032 65.9467 39.6967C67.3532 38.2902 69.2609 37.5 71.25 37.5C73.2391 37.5 75.1468 38.2902 76.5533 39.6967C77.9598 41.1032 78.75 43.0109 78.75 45Z" fill="white"/>
</svg>
